<svg xmlns="http://www.w3.org/2000/svg" version="1.1" xmlns:xlink="http://www.w3.org/1999/xlink" xmlns:svgjs="http://svgjs.dev/svgjs" viewBox="0 0 800 800"><defs><linearGradient x1="50%" y1="0%" x2="50%" y2="100%" id="rrreflection-grad"><stop stop-color="hsl(185, 53%, 55%)" stop-opacity="1" offset="45%"></stop><stop stop-color="hsl(0, 73%, 55%)" stop-opacity="1" offset="100%"></stop></linearGradient><linearGradient x1="50%" y1="0%" x2="50%" y2="100%" id="rrreflection-grad-2"><stop stop-color="hsl(0, 73%, 55%)" stop-opacity="1" offset="0%"></stop><stop stop-color="hsl(185, 53%, 55%)" stop-opacity="1" offset="45%"></stop></linearGradient><linearGradient gradientTransform="rotate(270)" x1="50%" y1="0%" x2="50%" y2="100%" id="rrreflection-grad-3"><stop stop-color="hsl(185, 53%, 55%)" stop-opacity="1" offset="45%"></stop><stop stop-color="hsl(0, 73%, 55%)" stop-opacity="1" offset="100%"></stop></linearGradient><linearGradient gradientTransform="rotate(270)" x1="50%" y1="0%" x2="50%" y2="100%" id="rrreflection-grad-4"><stop stop-color="hsl(0, 73%, 55%)" stop-opacity="1" offset="0%"></stop><stop stop-color="hsl(185, 53%, 55%)" stop-opacity="1" offset="45%"></stop></linearGradient></defs><g stroke-width="0.5" stroke="url(#rrreflection-grad)" fill="none"><circle r="824.5" cx="50%" cy="0"></circle><circle r="776" cx="50%" cy="0"></circle><circle r="727.5" cx="50%" cy="0"></circle><circle r="679" cx="50%" cy="0"></circle><circle r="630.5" cx="50%" cy="0"></circle><circle r="582" cx="50%" cy="0"></circle><circle r="533.5" cx="50%" cy="0"></circle><circle r="485" cx="50%" cy="0"></circle><circle r="436.5" cx="50%" cy="0"></circle><circle r="388" cx="50%" cy="0"></circle><circle r="339.5" cx="50%" cy="0"></circle><circle r="291" cx="50%" cy="0"></circle><circle r="242.5" cx="50%" cy="0"></circle><circle r="194" cx="50%" cy="0"></circle><circle r="145.5" cx="50%" cy="0"></circle><circle r="97" cx="50%" cy="0"></circle><circle r="48.5" cx="50%" cy="0"></circle></g><g stroke-width="0.5" stroke="url(#rrreflection-grad-2)" fill="none"><circle r="824.5" cx="50%" cy="100%"></circle><circle r="776" cx="50%" cy="100%"></circle><circle r="727.5" cx="50%" cy="100%"></circle><circle r="679" cx="50%" cy="100%"></circle><circle r="630.5" cx="50%" cy="100%"></circle><circle r="582" cx="50%" cy="100%"></circle><circle r="533.5" cx="50%" cy="100%"></circle><circle r="485" cx="50%" cy="100%"></circle><circle r="436.5" cx="50%" cy="100%"></circle><circle r="388" cx="50%" cy="100%"></circle><circle r="339.5" cx="50%" cy="100%"></circle><circle r="291" cx="50%" cy="100%"></circle><circle r="242.5" cx="50%" cy="100%"></circle><circle r="194" cx="50%" cy="100%"></circle><circle r="145.5" cx="50%" cy="100%"></circle><circle r="97" cx="50%" cy="100%"></circle><circle r="48.5" cx="50%" cy="100%"></circle></g><g stroke-width="0.5" stroke="url(#rrreflection-grad-3)" fill="none"><circle r="824.5" cx="0" cy="50%"></circle><circle r="776" cx="0" cy="50%"></circle><circle r="727.5" cx="0" cy="50%"></circle><circle r="679" cx="0" cy="50%"></circle><circle r="630.5" cx="0" cy="50%"></circle><circle r="582" cx="0" cy="50%"></circle><circle r="533.5" cx="0" cy="50%"></circle><circle r="485" cx="0" cy="50%"></circle><circle r="436.5" cx="0" cy="50%"></circle><circle r="388" cx="0" cy="50%"></circle><circle r="339.5" cx="0" cy="50%"></circle><circle r="291" cx="0" cy="50%"></circle><circle r="242.5" cx="0" cy="50%"></circle><circle r="194" cx="0" cy="50%"></circle><circle r="145.5" cx="0" cy="50%"></circle><circle r="97" cx="0" cy="50%"></circle><circle r="48.5" cx="0" cy="50%"></circle></g><g stroke-width="0.5" stroke="url(#rrreflection-grad-4)" fill="none"><circle r="824.5" cx="100%" cy="50%"></circle><circle r="776" cx="100%" cy="50%"></circle><circle r="727.5" cx="100%" cy="50%"></circle><circle r="679" cx="100%" cy="50%"></circle><circle r="630.5" cx="100%" cy="50%"></circle><circle r="582" cx="100%" cy="50%"></circle><circle r="533.5" cx="100%" cy="50%"></circle><circle r="485" cx="100%" cy="50%"></circle><circle r="436.5" cx="100%" cy="50%"></circle><circle r="388" cx="100%" cy="50%"></circle><circle r="339.5" cx="100%" cy="50%"></circle><circle r="291" cx="100%" cy="50%"></circle><circle r="242.5" cx="100%" cy="50%"></circle><circle r="194" cx="100%" cy="50%"></circle><circle r="145.5" cx="100%" cy="50%"></circle><circle r="97" cx="100%" cy="50%"></circle><circle r="48.5" cx="100%" cy="50%"></circle></g></svg>